<?xml version="1.0" encoding="utf-8"?>
<!-- Generator: Adobe Illustrator 16.0.0, SVG Export Plug-In . SVG Version: 6.00 Build 0)  -->
<!DOCTYPE svg PUBLIC "-//W3C//DTD SVG 1.1//EN" "http://www.w3.org/Graphics/SVG/1.1/DTD/svg11.dtd">
<svg version="1.1" id="Layer_1" xmlns="http://www.w3.org/2000/svg" xmlns:xlink="http://www.w3.org/1999/xlink" x="0px" y="0px"
	 width="180px" height="25px" viewBox="0 0 180 25" enable-background="new 0 0 180 25" xml:space="preserve">
<g>
	<path fill="#ff5722" d="M21.18,9.738c0.138-0.359,0.225-0.677,0.259-0.954c0.034-0.275,0.065-0.511,0.094-0.704
		c0-0.29-0.049-0.519-0.146-0.685c-0.097-0.165-0.225-0.29-0.383-0.373c-0.159-0.083-0.346-0.138-0.56-0.165
		c-0.215-0.028-0.446-0.042-0.694-0.042h-3.835L10.692,22.94H3.749L9.801,4.184h13.97c1.645,0,2.843,0.235,3.596,0.704
		c0.753,0.471,1.13,1.265,1.13,2.384c0,0.912-0.229,2.059-0.685,3.44L23.854,22.94H16.89L21.18,9.738z"/>
	<path fill="#ff5722" d="M36.165,20.309h9.016l-0.85,2.632H28.372l6.052-18.757h16.021l-0.851,2.632h-9.057l-1.782,5.472h7.854
		l-0.809,2.467h-7.854L36.165,20.309z"/>
	<path fill="#ff5722" d="M55.585,23.106c-1.202,0-2.231-0.104-3.088-0.312c-0.857-0.207-1.555-0.504-2.094-0.891
		s-0.936-0.863-1.191-1.431c-0.256-0.566-0.384-1.202-0.384-1.906c0-0.898,0.2-1.928,0.602-3.088l1.223-3.835
		c0.387-1.174,0.884-2.231,1.492-3.171c0.607-0.939,1.36-1.741,2.259-2.404s1.952-1.171,3.161-1.523s2.614-0.528,4.218-0.528h3.647
		c1.202,0,2.229,0.101,3.078,0.301s1.544,0.494,2.083,0.881s0.936,0.856,1.191,1.409s0.384,1.188,0.384,1.906
		c0,0.471-0.049,0.964-0.146,1.482s-0.241,1.067-0.435,1.647l-1.244,3.835c-0.373,1.16-0.86,2.211-1.461,3.15
		c-0.602,0.939-1.354,1.74-2.259,2.403c-0.905,0.664-1.966,1.175-3.182,1.534s-2.619,0.539-4.208,0.539H55.585z M58.217,20.474
		c0.553,0,1.071-0.079,1.555-0.238c0.483-0.158,0.926-0.414,1.327-0.767c0.4-0.353,0.763-0.809,1.088-1.368
		c0.324-0.56,0.611-1.239,0.86-2.041l1.533-4.705c0.193-0.58,0.332-1.091,0.415-1.533c0.082-0.442,0.124-0.836,0.124-1.182
		c0-0.773-0.204-1.299-0.611-1.575c-0.408-0.276-1.006-0.415-1.793-0.415c-0.539,0-1.029,0.056-1.472,0.166
		C60.801,6.927,60.387,7.141,60,7.458c-0.388,0.318-0.754,0.774-1.099,1.368c-0.346,0.594-0.678,1.368-0.995,2.321l-1.616,4.87
		c-0.152,0.471-0.267,0.905-0.343,1.306c-0.075,0.401-0.113,0.761-0.113,1.078c0,0.719,0.2,1.243,0.601,1.575
		S57.43,20.474,58.217,20.474z"/>
	<path fill="#ff5722" d="M93.658,18.008c-0.331,1.009-0.791,1.834-1.378,2.477c-0.588,0.643-1.261,1.144-2.021,1.503
		c-0.761,0.359-1.59,0.607-2.487,0.746c-0.898,0.138-1.824,0.207-2.777,0.207H71.938l6.052-18.757h12.622
		c0.815,0,1.572,0.055,2.27,0.166c0.698,0.11,1.306,0.293,1.824,0.549s0.926,0.598,1.223,1.026c0.297,0.428,0.445,0.953,0.445,1.575
		c0,0.207-0.027,0.486-0.082,0.839c-0.056,0.353-0.125,0.667-0.208,0.943c-0.165,0.553-0.366,1.04-0.601,1.461
		c-0.235,0.422-0.501,0.795-0.798,1.119c-0.298,0.325-0.636,0.608-1.016,0.85c-0.38,0.242-0.806,0.467-1.274,0.674l-0.042,0.083
		c0.553,0.235,0.981,0.549,1.285,0.943c0.304,0.394,0.442,0.929,0.414,1.605c0,0.263-0.034,0.57-0.104,0.923
		S93.783,17.648,93.658,18.008z M86.736,17.428c0.068-0.235,0.124-0.449,0.165-0.643c0.042-0.193,0.063-0.38,0.063-0.56
		c0-0.581-0.214-0.991-0.643-1.233s-1.14-0.363-2.135-0.363h-2.632l-1.824,5.68h2.674c0.622,0,1.164-0.056,1.627-0.166
		s0.867-0.283,1.213-0.519c0.345-0.234,0.639-0.531,0.881-0.891C86.366,18.374,86.57,17.938,86.736,17.428z M84.995,12.163
		c0.594,0,1.099-0.045,1.513-0.135c0.415-0.09,0.767-0.238,1.058-0.445c0.29-0.208,0.531-0.48,0.725-0.819
		c0.193-0.338,0.373-0.749,0.539-1.233c0.166-0.469,0.249-0.884,0.249-1.243c0-0.483-0.184-0.85-0.55-1.099
		s-0.963-0.373-1.792-0.373h-2.633l-1.741,5.348H84.995z"/>
	<path fill="#ff5722" d="M103.421,20.309h9.016l-0.85,2.632H95.628l6.052-18.757H117.7l-0.85,2.632h-9.057l-1.782,5.472h7.854
		l-0.809,2.467h-7.854L103.421,20.309z"/>
	<path fill="#ff5722" d="M119.38,4.184h17.492l-0.85,2.632h-5.264l-5.225,16.125h-6.943l5.203-16.125h-5.264L119.38,4.184z"/>
	<path fill="#ff5722" d="M133.142,17.262h6.798l-1.824,5.679h-6.798L133.142,17.262z"/>
	<path fill="#f50258" d="M148.499,4.184h6.964l-6.072,18.757h-6.943L148.499,4.184z"/>
	<path fill="#f50258" d="M161.971,23.106c-1.202,0-2.231-0.104-3.088-0.312c-0.857-0.207-1.555-0.504-2.094-0.891
		s-0.937-0.863-1.191-1.431c-0.256-0.566-0.384-1.202-0.384-1.906c0-0.898,0.2-1.928,0.601-3.088l1.224-3.835
		c0.387-1.174,0.884-2.231,1.492-3.171c0.607-0.939,1.36-1.741,2.259-2.404s1.951-1.171,3.161-1.523
		c1.209-0.353,2.614-0.528,4.218-0.528h3.647c1.202,0,2.228,0.101,3.078,0.301c0.85,0.2,1.544,0.494,2.083,0.881
		c0.538,0.387,0.936,0.856,1.191,1.409s0.384,1.188,0.384,1.906c0,0.471-0.049,0.964-0.146,1.482s-0.242,1.067-0.436,1.647
		l-1.243,3.835c-0.373,1.16-0.86,2.211-1.461,3.15c-0.602,0.939-1.354,1.74-2.26,2.403c-0.905,0.664-1.966,1.175-3.181,1.534
		c-1.217,0.359-2.619,0.539-4.208,0.539H161.971z M164.603,20.474c0.553,0,1.071-0.079,1.555-0.238
		c0.483-0.158,0.926-0.414,1.326-0.767s0.764-0.809,1.088-1.368c0.325-0.56,0.612-1.239,0.86-2.041l1.534-4.705
		c0.193-0.58,0.331-1.091,0.414-1.533s0.125-0.836,0.125-1.182c0-0.773-0.204-1.299-0.611-1.575
		c-0.408-0.276-1.006-0.415-1.793-0.415c-0.539,0-1.03,0.056-1.472,0.166c-0.442,0.111-0.857,0.325-1.244,0.643
		c-0.387,0.318-0.753,0.774-1.098,1.368c-0.346,0.594-0.678,1.368-0.995,2.321l-1.617,4.87c-0.151,0.471-0.266,0.905-0.342,1.306
		c-0.076,0.401-0.113,0.761-0.113,1.078c0,0.719,0.199,1.243,0.601,1.575C163.221,20.309,163.815,20.474,164.603,20.474z"/>
</g>
</svg>
